<?xml version="1.0" encoding="UTF-8"?>
<svg id="_レイヤー_2" data-name="レイヤー 2" xmlns="http://www.w3.org/2000/svg" viewBox="0 0 24 24">
  <g id="_レイヤー_1-2" data-name="レイヤー 1">
    <g>
      <rect width="24" height="24" style="fill: none;"/>
      <g style="fill: #6B6B5B;">
        <path d="M20.6334,6.306c-.0196-.1893-.1788-.333-.3689-.333H3.7354c-.19,0-.3493.1437-.3688.333l-1.7729,17.2853c-.0105.1043.0235.2082.0938.286.0702.0778.1701.1223.2751.1223h20.075c.1049,0,.2049-.0445.2751-.1223.0702-.0778.1042-.1817.0937-.2863l-1.7729-17.285ZM3.6051,22.1464l1.4681-14.3202h13.8533l1.4684,14.3202H3.6051Z"/>
        <path d="M7.7826,9.8226c-.384,0-.695.3112-.695.6949s.3109.695.695.695.695-.3113.695-.695-.3109-.6949-.695-.6949Z"/>
        <path d="M16.2166,9.8226c-.384,0-.6949.3112-.6949.6949s.3109.695.6949.695.695-.3113.695-.695-.3109-.6949-.695-.6949Z"/>
        <path d="M9.3789,2.1978c.6725-.6718,1.5955-1.0852,2.621-1.0855,1.0254.0004,1.9484.4137,2.6209,1.0855.6714.6725,1.0852,1.5955,1.0855,2.6209h1.112C16.8178,2.1573,14.6613.0007,11.9998.0003c-2.6616.0004-4.8181,2.1569-4.8185,4.8184h1.112c.0003-1.0254.4141-1.9484,1.0855-2.6209Z"/>
      </g>
    </g>
  </g>
</svg>