<svg viewBox="0 0 24 24" fill="none" xmlns="http://www.w3.org/2000/svg">
<g clip-path="url(#clip0_217_15)">
<path d="M19.845 5.59479C19.845 4.79604 19.2 4.15479 18.405 4.15479C17.61 4.15479 16.965 4.79979 16.965 5.59479C16.965 6.38979 17.6137 7.03479 18.405 7.03479C19.1962 7.03479 19.845 6.38979 19.845 5.59479Z" fill="#6B6B5B"/>
<path d="M21.765 16.8489C21.7125 18.0189 21.5175 18.6564 21.3525 19.0764C21.135 19.6352 20.8725 20.0364 20.4525 20.4564C20.0363 20.8764 19.635 21.1352 19.0763 21.3527C18.6525 21.5177 18.015 21.7127 16.845 21.7689C15.5812 21.8252 15.2063 21.8364 11.9963 21.8364C8.78625 21.8364 8.415 21.8252 7.1475 21.7689C5.9775 21.7127 5.34375 21.5177 4.92 21.3527C4.3575 21.1352 3.96 20.8764 3.54 20.4564C3.11625 20.0364 2.8575 19.6352 2.64 19.0764C2.47875 18.6527 2.28 18.0189 2.2275 16.8489C2.1675 15.5852 2.15625 15.2027 2.15625 12.0002C2.15625 8.79766 2.1675 8.41516 2.2275 7.15141C2.27625 5.98141 2.475 5.34766 2.64 4.92016C2.85375 4.36141 3.11625 3.96391 3.54 3.54391C3.96 3.12391 4.3575 2.86516 4.92 2.64766C5.34375 2.48266 5.9775 2.28766 7.1475 2.23141C8.41125 2.17516 8.79 2.16016 11.9963 2.16016C15.2025 2.16016 15.5775 2.17516 16.845 2.23141C18.015 2.28766 18.6525 2.47891 19.0763 2.64766C19.635 2.86516 20.0363 3.12766 20.4525 3.54391C20.8763 3.96391 21.135 4.36141 21.3525 4.92016C21.5138 5.34766 21.7125 5.98141 21.765 7.15141C21.825 8.41516 21.8363 8.79391 21.8363 12.0002C21.8363 15.2064 21.8213 15.5814 21.765 16.8489ZM23.9288 7.05391C23.8687 5.77516 23.67 4.90141 23.37 4.14016C23.0662 3.35266 22.6575 2.68141 21.9862 2.01391C21.3188 1.34641 20.6513 0.937656 19.8638 0.630156C19.0988 0.333906 18.2288 0.131406 16.95 0.0751562C15.6713 0.0151563 15.2625 0.00390625 12 0.00390625C8.7375 0.00390625 8.3325 0.0151563 7.05 0.0751562C5.775 0.131406 4.905 0.333906 4.13625 0.630156C3.34875 0.937656 2.68125 1.34641 2.01375 2.01391C1.34625 2.68141 0.9375 3.35266 0.63 4.14016C0.33375 4.90141 0.13125 5.77516 0.07125 7.05391C0.015 8.33266 0 8.74141 0 12.0002C0 15.2589 0.015 15.6677 0.07125 16.9464C0.13125 18.2214 0.33375 19.0952 0.63 19.8602C0.9375 20.6477 1.34625 21.3189 2.01375 21.9827C2.68125 22.6502 3.34875 23.0589 4.13625 23.3664C4.905 23.6627 5.775 23.8652 7.05 23.9214C8.32875 23.9814 8.74125 23.9927 12 23.9927C15.2587 23.9927 15.6675 23.9777 16.95 23.9214C18.2325 23.8652 19.0988 23.6627 19.8638 23.3664C20.6513 23.0589 21.3225 22.6464 21.9862 21.9827C22.6537 21.3152 23.0625 20.6439 23.37 19.8602C23.67 19.0952 23.8725 18.2214 23.9288 16.9464C23.9888 15.6677 24 15.2589 24 12.0002C24 8.74141 23.985 8.32891 23.9288 7.05016V7.05391Z" fill="#6B6B5B"/>
<path d="M12 15.9975C9.79125 15.9975 7.99875 14.2087 7.99875 12C7.99875 9.79121 9.79125 7.99871 12 7.99871C14.2087 7.99871 16.0012 9.79121 16.0012 12C16.0012 14.2087 14.2087 15.9975 12 15.9975ZM12 5.83496C8.595 5.83496 5.83875 8.59871 5.83875 12C5.83875 15.4012 8.595 18.1612 12 18.1612C15.405 18.1612 18.1612 15.4012 18.1612 12C18.1612 8.59871 15.4012 5.83496 12 5.83496Z" fill="#6B6B5B"/>
</g>
<defs>
<clipPath id="clip0_217_15">
<rect width="24" height="24" fill="white"/>
</clipPath>
</defs>
</svg>
